#define test_width 16
#define test_height 7
static char test_bits[] = {0xFF, 0xFF, 0x80, 0x01, 0x80, 0x01, 0x80, 0x01, 0x80, 0x01, 0x80, 0x01, 0xFF, 0xFF };
